<svg xmlns="http://www.w3.org/2000/svg" version="1.1" xmlns:xlink="http://www.w3.org/1999/xlink" width="200" height="200"><svg xmlns="http://www.w3.org/2000/svg" version="1.1" xmlns:xlink="http://www.w3.org/1999/xlink" viewBox="0 0 200 200"><rect width="200" height="200" fill="url('#gradient')"></rect><defs><linearGradient id="SvgjsLinearGradient1046" gradientTransform="rotate(121 0.5 0.5)"><stop offset="0%" stop-color="#a4cfc1"></stop><stop offset="100%" stop-color="#72998c"></stop></linearGradient></defs><g><g fill="#658c9e" transform="matrix(7.517128874388255,0,0,7.517128874388255,1.9371760056808398,153.44616216703108)" stroke="#658c9e" stroke-width="0.2"><path d="M5.75 0L1.07 0L1.07-14.22L5.65-14.22Q7.54-14.22 9.04-13.36Q10.55-12.51 11.39-10.95Q12.24-9.39 12.25-7.46L12.25-7.46L12.25-6.81Q12.25-4.85 11.42-3.31Q10.60-1.76 9.10-0.88Q7.60-0.01 5.75 0L5.75 0ZM5.65-11.57L4.50-11.57L4.50-2.64L5.69-2.64Q7.17-2.64 7.96-3.69Q8.75-4.74 8.75-6.81L8.75-6.81L8.75-7.42Q8.75-9.48 7.96-10.53Q7.17-11.57 5.65-11.57L5.65-11.57ZM19.78 0L14.00 0L14.00-14.22L19.11-14.22Q21.86-14.22 23.29-13.21Q24.72-12.21 24.72-10.29L24.72-10.29Q24.72-9.19 24.21-8.41Q23.70-7.63 22.71-7.26L22.71-7.26Q23.83-6.96 24.42-6.16Q25.02-5.36 25.02-4.21L25.02-4.21Q25.02-2.12 23.70-1.07Q22.37-0.02 19.78 0L19.78 0ZM19.83-6.04L17.43-6.04L17.43-2.64L19.68-2.64Q20.61-2.64 21.10-3.06Q21.60-3.49 21.60-4.26L21.60-4.26Q21.60-6.04 19.83-6.04L19.83-6.04ZM17.43-11.57L17.43-8.29L19.22-8.29Q20.34-8.30 20.82-8.70Q21.30-9.10 21.30-9.88L21.30-9.88Q21.30-10.78 20.78-11.18Q20.26-11.57 19.11-11.57L19.11-11.57L17.43-11.57Z"></path></g></g></svg><style>@media (prefers-color-scheme: light) { :root { filter: none; } }
@media (prefers-color-scheme: dark) { :root { filter: none; } }
</style></svg>